# Blender v2.78 (sub 0) OBJ File: '1 iternal.blend'
# www.blender.org
mtllib PUSHILIN_flying_saucer.mtl
o PUSHILIN_flying_saucer_Circle.006
v -1.250597 0.078360 0.622109
v -0.646088 0.078360 1.238379
v 0.205205 0.078360 1.381631
v 0.978117 0.078360 0.997147
v 1.377421 0.078360 0.231786
v 1.250597 0.078360 -0.622109
v 0.646088 0.078360 -1.238379
v -0.205205 0.078360 -1.381631
v -0.978117 0.078360 -0.997146
v -1.377421 0.078360 -0.231785
v -1.250603 0.306272 0.622112
v -0.646091 0.306272 1.238385
v 0.205206 0.306272 1.381638
v 0.978121 0.306272 0.997151
v 1.377428 0.306272 0.231787
v 1.250603 0.306272 -0.622112
v 0.646091 0.306272 -1.238385
v -0.205206 0.306272 -1.381638
v -0.978121 0.306272 -0.997151
v -1.377428 0.306272 -0.231786
v -0.591294 0.548342 0.294139
v -0.305476 0.548342 0.585517
v 0.097023 0.548342 0.653248
v 0.462462 0.548342 0.471460
v 0.651257 0.548342 0.109591
v 0.591294 0.548342 -0.294139
v 0.305476 0.548342 -0.585517
v -0.097023 0.548342 -0.653248
v -0.462462 0.548342 -0.471460
v -0.651257 0.548342 -0.109590
v -0.770681 -0.038291 0.383375
v -0.398152 -0.038291 0.763152
v 0.126458 -0.038291 0.851431
v 0.602765 -0.038291 0.614492
v 0.848837 -0.038291 0.142838
v 0.770682 -0.038291 -0.383375
v 0.398152 -0.038291 -0.763152
v -0.126457 -0.038291 -0.851431
v -0.602765 -0.038291 -0.614492
v -0.848837 -0.038291 -0.142838
v -0.410604 -0.140934 0.204255
v -0.212128 -0.140934 0.406592
v 0.067374 -0.140934 0.453626
v 0.321141 -0.140934 0.327389
v 0.452244 -0.140934 0.076101
v 0.410604 -0.140934 -0.204255
v 0.212128 -0.140934 -0.406592
v -0.067374 -0.140934 -0.453626
v -0.321141 -0.140934 -0.327389
v -0.452243 -0.140934 -0.076101
v -0.310603 -0.321479 0.154510
v -0.160465 -0.321479 0.307569
v 0.050966 -0.321479 0.343148
v 0.242929 -0.321479 0.247655
v 0.342102 -0.321479 0.057567
v 0.310604 -0.321479 -0.154509
v 0.160465 -0.321479 -0.307569
v -0.050965 -0.321479 -0.343147
v -0.242929 -0.321479 -0.247655
v -0.342102 -0.321479 -0.057567
v -0.552087 0.781550 0.274635
v -0.285221 0.781550 0.546693
v 0.090590 0.781550 0.609933
v 0.431798 0.781550 0.440199
v 0.608074 0.781550 0.102324
v 0.552087 0.781550 -0.274635
v 0.285221 0.781550 -0.546693
v -0.090589 0.781550 -0.609933
v -0.431798 0.781550 -0.440199
v -0.608074 0.781550 -0.102324
v -0.366665 0.998954 0.182398
v -0.189428 0.998954 0.363083
v 0.060165 0.998954 0.405084
v 0.286776 0.998954 0.292356
v 0.403849 0.998954 0.067958
v 0.366666 0.998954 -0.182398
v 0.189428 0.998954 -0.363083
v -0.060164 0.998954 -0.405083
v -0.286776 0.998954 -0.292355
v -0.403849 0.998954 -0.067958
v 0.000000 1.108597 0.000000
v -0.643949 0.587808 -0.108360
v -0.584659 0.587808 0.290838
v -0.457273 0.587808 -0.466169
v -0.095934 0.587808 -0.645917
v 0.302048 0.587808 -0.578947
v 0.584659 0.587808 -0.290838
v 0.643949 0.587808 0.108361
v 0.457273 0.587808 0.466170
v 0.095934 0.587808 0.645917
v -0.302048 0.587808 0.578947
v -0.860838 0.422954 -0.144857
v -0.781578 0.422954 0.388795
v -0.611287 0.422954 -0.623180
v -0.128245 0.422954 -0.863469
v 0.403781 0.422954 -0.773942
v 0.781578 0.422954 -0.388795
v 0.860838 0.422954 0.144858
v 0.611287 0.422954 0.623180
v 0.128246 0.422954 0.863469
v -0.403782 0.422954 0.773942
v -1.377425 0.271220 -0.231786
v -1.377423 0.113412 -0.231786
v -1.250599 0.113412 0.622110
v -1.250601 0.271220 0.622111
v -0.978120 0.271220 -0.997149
v -0.978118 0.113412 -0.997148
v -0.205205 0.271220 -1.381635
v -0.205205 0.113412 -1.381633
v 0.646090 0.271220 -1.238383
v 0.646089 0.113412 -1.238381
v 1.250601 0.271220 -0.622111
v 1.250599 0.113412 -0.622110
v 1.377425 0.271220 0.231787
v 1.377423 0.113412 0.231786
v 0.978120 0.271220 0.997150
v 0.978118 0.113412 0.997148
v 0.205206 0.271220 1.381635
v 0.205205 0.113412 1.381633
v -0.646090 0.271220 1.238383
v -0.646089 0.113412 1.238381
v -0.310603 -0.708400 0.154510
v -0.160465 -0.708400 0.307569
v 0.050966 -0.708400 0.343148
v 0.242929 -0.708400 0.247655
v 0.342102 -0.708400 0.057567
v 0.310604 -0.708400 -0.154509
v 0.160465 -0.708400 -0.307569
v -0.050965 -0.708400 -0.343147
v -0.242929 -0.708400 -0.247655
v -0.342102 -0.708400 -0.057567
v -0.310603 -0.790979 0.154510
v -0.160465 -0.790979 0.307569
v 0.050966 -0.790979 0.343148
v 0.242929 -0.790979 0.247655
v 0.342102 -0.790979 0.057567
v 0.310604 -0.790979 -0.154509
v 0.160465 -0.790979 -0.307569
v -0.050965 -0.790979 -0.343147
v -0.242929 -0.790979 -0.247655
v -0.342102 -0.790979 -0.057567
v -0.310603 -0.930176 0.154510
v -0.160465 -0.930176 0.307569
v 0.050966 -0.930176 0.343148
v 0.242929 -0.930176 0.247655
v 0.342102 -0.930176 0.057567
v 0.310604 -0.930176 -0.154509
v 0.160465 -0.930176 -0.307569
v -0.050965 -0.930176 -0.343147
v -0.242929 -0.930176 -0.247655
v -0.342102 -0.930176 -0.057567
v -0.310603 -1.052155 0.154510
v -0.160465 -1.052155 0.307569
v 0.050966 -1.052155 0.343148
v 0.242929 -1.052155 0.247655
v 0.342102 -1.052155 0.057567
v 0.310604 -1.052155 -0.154509
v 0.160465 -1.052155 -0.307569
v -0.050965 -1.052155 -0.343147
v -0.242929 -1.052155 -0.247655
v -0.342102 -1.052155 -0.057567
v -0.310603 -1.108597 0.154510
v -0.160465 -1.108597 0.307569
v 0.050966 -1.108597 0.343148
v 0.242929 -1.108597 0.247655
v 0.342102 -1.108597 0.057567
v 0.310604 -1.108597 -0.154509
v 0.160465 -1.108597 -0.307569
v -0.050965 -1.108597 -0.343147
v -0.242929 -1.108597 -0.247655
v -0.342102 -1.108597 -0.057567
vt 0.9563 0.3140
vt 0.9563 0.4903
vt 0.9493 0.4903
vt 0.9493 0.3140
vt 0.1824 0.8879
vt 0.1824 0.7452
vt 0.1894 0.7453
vt 0.1894 0.8879
vt 0.3287 0.8539
vt 0.3287 0.6776
vt 0.3358 0.6776
vt 0.3358 0.8539
vt 0.4447 0.7923
vt 0.4447 0.9349
vt 0.4376 0.9350
vt 0.4376 0.7924
vt 0.2523 0.5628
vt 0.2523 0.7055
vt 0.2452 0.7054
vt 0.2452 0.5627
vt 0.5528 0.5626
vt 0.5528 0.7389
vt 0.5457 0.7389
vt 0.5457 0.5626
vt 0.7215 0.9347
vt 0.7215 0.7921
vt 0.7286 0.7920
vt 0.7286 0.9346
vt 0.9503 0.2460
vt 0.9503 0.1034
vt 0.9574 0.1035
vt 0.9574 0.2461
vt 0.1824 0.7390
vt 0.1824 0.5627
vt 0.1894 0.5627
vt 0.1894 0.7390
vt 0.1000 0.6776
vt 0.1000 0.8202
vt 0.0929 0.8203
vt 0.0929 0.6777
vt 0.3883 0.8552
vt 0.3883 0.7451
vt 0.4272 0.7585
vt 0.4272 0.8418
vt 0.7941 0.8549
vt 0.7941 0.7448
vt 0.8334 0.7570
vt 0.8334 0.8403
vt 0.7879 0.7448
vt 0.7879 0.8547
vt 0.7477 0.8432
vt 0.7477 0.7600
vt 0.6003 0.7447
vt 0.6003 0.8546
vt 0.5589 0.8429
vt 0.5589 0.7597
vt 0.8290 0.4132
vt 0.8290 0.5233
vt 0.7867 0.5109
vt 0.7867 0.4276
vt 0.3010 0.6776
vt 0.3010 0.7878
vt 0.2585 0.7743
vt 0.2585 0.6910
vt 0.7867 0.3078
vt 0.7867 0.1978
vt 0.8290 0.2122
vt 0.8290 0.2954
vt 0.7871 0.1252
vt 0.7871 0.0153
vt 0.8285 0.0304
vt 0.8285 0.1135
vt 0.6065 0.8546
vt 0.6065 0.7447
vt 0.6468 0.7599
vt 0.6468 0.8430
vt 0.3821 0.7451
vt 0.3821 0.8551
vt 0.3428 0.8406
vt 0.3428 0.7573
vt 0.2275 0.3803
vt 0.2275 0.5565
vt 0.1244 0.5227
vt 0.1244 0.4141
vt 0.1183 0.0153
vt 0.1183 0.1916
vt 0.0153 0.1577
vt 0.0153 0.0491
vt 0.3367 0.0153
vt 0.3367 0.1916
vt 0.2336 0.1577
vt 0.2336 0.0491
vt 0.1183 0.3803
vt 0.1183 0.5565
vt 0.0153 0.5227
vt 0.0153 0.4141
vt 0.3428 0.3741
vt 0.3428 0.1978
vt 0.4459 0.2316
vt 0.4459 0.3402
vt 0.0153 0.3741
vt 0.0153 0.1978
vt 0.1183 0.2316
vt 0.1183 0.3402
vt 0.2275 0.0153
vt 0.2275 0.1916
vt 0.1244 0.1577
vt 0.1244 0.0491
vt 0.2275 0.1978
vt 0.2275 0.3741
vt 0.1244 0.3402
vt 0.1244 0.2316
vt 0.2336 0.3741
vt 0.2336 0.1978
vt 0.3367 0.2316
vt 0.3367 0.3402
vt 0.4459 0.0153
vt 0.4459 0.1916
vt 0.3428 0.1577
vt 0.3428 0.0491
vt 0.4509 0.7861
vt 0.4509 0.6774
vt 0.5282 0.7028
vt 0.5282 0.7607
vt 0.4509 0.6712
vt 0.4509 0.5626
vt 0.5282 0.5880
vt 0.5282 0.6458
vt 0.3358 0.5627
vt 0.3358 0.6714
vt 0.2585 0.6460
vt 0.2585 0.5881
vt 0.7415 0.6772
vt 0.7415 0.7858
vt 0.6642 0.7604
vt 0.6642 0.7025
vt 0.6646 0.3064
vt 0.6646 0.1978
vt 0.7420 0.2232
vt 0.7420 0.2810
vt 0.0926 0.5627
vt 0.0926 0.6714
vt 0.0153 0.6460
vt 0.0153 0.5881
vt 0.1760 0.5627
vt 0.1760 0.6714
vt 0.0987 0.6460
vt 0.0987 0.5881
vt 0.7430 0.0153
vt 0.7430 0.1239
vt 0.6656 0.0985
vt 0.6656 0.0407
vt 0.7425 0.3803
vt 0.7425 0.4889
vt 0.6652 0.4635
vt 0.6652 0.4056
vt 0.6642 0.6710
vt 0.6642 0.5623
vt 0.7415 0.5877
vt 0.7415 0.6456
vt 0.7077 0.3705
vt 0.7077 0.3126
vt 0.7414 0.3197
vt 0.7414 0.3634
vt 0.8898 0.5552
vt 0.8898 0.5084
vt 0.9267 0.5018
vt 0.9267 0.5373
vt 0.7015 0.3126
vt 0.7015 0.3705
vt 0.6646 0.3634
vt 0.6646 0.3197
vt 0.1492 0.9583
vt 0.1492 0.9115
vt 0.1862 0.9295
vt 0.1862 0.9649
vt 0.8351 0.5547
vt 0.8351 0.5079
vt 0.8721 0.5013
vt 0.8721 0.5368
vt 0.6652 0.5530
vt 0.6652 0.4951
vt 0.7021 0.5021
vt 0.7021 0.5459
vt 0.0153 0.9589
vt 0.0153 0.9120
vt 0.0522 0.9300
vt 0.0522 0.9654
vt 0.7871 0.1848
vt 0.7871 0.1380
vt 0.8241 0.1314
vt 0.8241 0.1668
vt 0.7025 0.1301
vt 0.7025 0.1880
vt 0.6656 0.1810
vt 0.6656 0.1372
vt 0.1431 0.9181
vt 0.1431 0.9649
vt 0.1061 0.9469
vt 0.1061 0.9115
vt 0.9292 0.1978
vt 0.9292 0.2802
vt 0.8895 0.2779
vt 0.8895 0.2001
vt 0.9273 0.6292
vt 0.9273 0.5623
vt 0.9670 0.5634
vt 0.9670 0.6266
vt 0.9288 0.4132
vt 0.9288 0.4956
vt 0.8898 0.4933
vt 0.8898 0.4155
vt 0.2585 0.9497
vt 0.2585 0.8830
vt 0.2975 0.8802
vt 0.2975 0.9431
vt 0.4509 0.9488
vt 0.4509 0.8821
vt 0.4899 0.8886
vt 0.4899 0.9516
vt 0.9310 0.1034
vt 0.9310 0.1858
vt 0.8919 0.1835
vt 0.8919 0.1057
vt 0.5448 0.8775
vt 0.5448 0.9441
vt 0.5058 0.9469
vt 0.5058 0.8840
vt 0.6642 0.9456
vt 0.6642 0.8789
vt 0.7032 0.8854
vt 0.7032 0.9484
vt 0.9299 0.3140
vt 0.9299 0.3965
vt 0.8909 0.3942
vt 0.8909 0.3163
vt 0.8793 0.9014
vt 0.8793 0.9683
vt 0.8395 0.9657
vt 0.8395 0.9025
vt 0.8834 0.1978
vt 0.8834 0.2756
vt 0.8351 0.2625
vt 0.8351 0.2108
vt 0.8395 0.8952
vt 0.8395 0.8320
vt 0.8888 0.8231
vt 0.8888 0.8651
vt 0.8807 0.7300
vt 0.8807 0.6522
vt 0.9239 0.6652
vt 0.9239 0.7169
vt 0.4290 0.8614
vt 0.4290 0.9391
vt 0.3883 0.9290
vt 0.3883 0.8775
vt 0.6003 0.8608
vt 0.6003 0.9385
vt 0.5580 0.9272
vt 0.5580 0.8756
vt 0.2388 0.8324
vt 0.2388 0.9102
vt 0.1956 0.8971
vt 0.1956 0.8454
vt 0.7879 0.8609
vt 0.7879 0.9387
vt 0.7456 0.9238
vt 0.7456 0.8722
vt 0.3821 0.8613
vt 0.3821 0.9390
vt 0.3413 0.9230
vt 0.3413 0.8714
vt 0.9211 0.5623
vt 0.9211 0.6402
vt 0.8779 0.6271
vt 0.8779 0.5754
vt 0.8888 0.7537
vt 0.8888 0.8169
vt 0.8395 0.7868
vt 0.8395 0.7448
vt 0.8351 0.4295
vt 0.8837 0.4132
vt 0.8837 0.4951
vt 0.8858 0.1815
vt 0.8347 0.1815
vt 0.8591 0.1034
vt 0.8717 0.6460
vt 0.8235 0.6291
vt 0.8717 0.5623
vt 0.4509 0.8073
vt 0.4997 0.7923
vt 0.4997 0.8759
vt 0.8353 0.3990
vt 0.7867 0.3829
vt 0.8353 0.3140
vt 0.2468 0.8262
vt 0.1956 0.8262
vt 0.2212 0.7452
vt 0.7153 0.8727
vt 0.6642 0.8727
vt 0.6905 0.7920
vt 0.3095 0.8740
vt 0.2585 0.8740
vt 0.2854 0.7940
vt 0.8746 0.7312
vt 0.8235 0.7312
vt 0.8507 0.6522
vt 0.8834 0.0972
vt 0.8347 0.0816
vt 0.8834 0.0153
vt 0.1637 0.8268
vt 0.1637 0.8945
vt 0.1556 0.8940
vt 0.1556 0.8270
vt 0.9625 0.9771
vt 0.9625 0.8937
vt 0.9705 0.8942
vt 0.9705 0.9766
vt 0.2388 0.9170
vt 0.2388 0.9844
vt 0.2309 0.9831
vt 0.2309 0.9164
vt 0.9768 0.1714
vt 0.9768 0.1040
vt 0.9847 0.1034
vt 0.9847 0.1701
vt 0.9837 0.7448
vt 0.9837 0.8282
vt 0.9757 0.8277
vt 0.9757 0.7453
vt 0.9766 0.9612
vt 0.9766 0.8937
vt 0.9845 0.8951
vt 0.9845 0.9617
vt 0.9845 0.4630
vt 0.9845 0.5304
vt 0.9766 0.5310
vt 0.9766 0.4643
vt 0.9704 0.4630
vt 0.9704 0.5463
vt 0.9625 0.5458
vt 0.9625 0.4634
vt 0.9731 0.0153
vt 0.9731 0.0830
vt 0.9650 0.0827
vt 0.9650 0.0158
vt 0.3153 0.6776
vt 0.3153 0.7609
vt 0.3072 0.7605
vt 0.3072 0.6781
vt 0.5589 0.7385
vt 0.5589 0.5623
vt 0.6581 0.5966
vt 0.6581 0.7067
vt 0.6595 0.0153
vt 0.6595 0.1912
vt 0.5593 0.1564
vt 0.5593 0.0465
vt 0.5532 0.1978
vt 0.5532 0.3736
vt 0.4520 0.3392
vt 0.4520 0.2293
vt 0.3428 0.5564
vt 0.3428 0.3803
vt 0.4447 0.4140
vt 0.4447 0.5241
vt 0.3358 0.3803
vt 0.3358 0.5565
vt 0.2336 0.5235
vt 0.2336 0.4133
vt 0.5528 0.3803
vt 0.5528 0.5564
vt 0.4509 0.5241
vt 0.4509 0.4140
vt 0.5532 0.0153
vt 0.5532 0.1912
vt 0.4520 0.1597
vt 0.4520 0.0497
vt 0.6591 0.3803
vt 0.6591 0.5561
vt 0.5589 0.5249
vt 0.5589 0.4150
vt 0.5593 0.3739
vt 0.5593 0.1978
vt 0.6585 0.2295
vt 0.6585 0.3396
vt 0.3428 0.7389
vt 0.3428 0.5626
vt 0.4416 0.5956
vt 0.4416 0.7058
vt 0.9695 0.3140
vt 0.9695 0.4567
vt 0.9625 0.4568
vt 0.9625 0.3141
vt 0.7491 0.1583
vt 0.7491 0.0157
vt 0.7810 0.0153
vt 0.7810 0.1579
vt 0.9361 0.4903
vt 0.9361 0.3140
vt 0.9431 0.3140
vt 0.9431 0.4903
vt 0.1956 0.7390
vt 0.1956 0.5627
vt 0.2275 0.5627
vt 0.2275 0.7390
vt 0.2450 0.9750
vt 0.2450 0.8324
vt 0.2521 0.8325
vt 0.2521 0.9751
vt 0.0471 0.6780
vt 0.0471 0.8206
vt 0.0153 0.8202
vt 0.0153 0.6776
vt 0.9757 0.4568
vt 0.9757 0.3141
vt 0.9828 0.3140
vt 0.9828 0.4567
vt 0.0852 0.6776
vt 0.0852 0.8202
vt 0.0533 0.8206
vt 0.0533 0.6780
vt 0.9432 0.7448
vt 0.9432 0.9211
vt 0.9361 0.9211
vt 0.9361 0.7448
vt 0.7806 0.1978
vt 0.7806 0.3741
vt 0.7487 0.3741
vt 0.7487 0.1978
vt 0.9803 0.5624
vt 0.9803 0.7050
vt 0.9732 0.7050
vt 0.9732 0.5623
vt 0.1441 0.8202
vt 0.1441 0.6776
vt 0.1760 0.6780
vt 0.1760 0.8206
vt 0.9707 0.1034
vt 0.9707 0.2460
vt 0.9636 0.2461
vt 0.9636 0.1035
vt 0.1380 0.6776
vt 0.1380 0.8202
vt 0.1061 0.8206
vt 0.1061 0.6780
vt 0.9371 0.2797
vt 0.9371 0.1034
vt 0.9442 0.1034
vt 0.9442 0.2797
vt 0.7477 0.7386
vt 0.7477 0.5623
vt 0.7796 0.5623
vt 0.7796 0.7386
vt 0.9625 0.8874
vt 0.9625 0.7448
vt 0.9696 0.7449
vt 0.9696 0.8875
vt 0.7806 0.3807
vt 0.7806 0.5233
vt 0.7487 0.5229
vt 0.7487 0.3803
vt 0.9564 0.7448
vt 0.9564 0.9211
vt 0.9493 0.9211
vt 0.9493 0.7448
vt 0.8174 0.5623
vt 0.8174 0.7386
vt 0.7857 0.7386
vt 0.7857 0.5623
vt 0.1494 0.9053
vt 0.1061 0.9053
vt 0.1061 0.8268
vt 0.1494 0.8268
vt 0.8292 0.9405
vt 0.7941 0.9401
vt 0.7941 0.8611
vt 0.8292 0.8615
vt 0.8896 0.0153
vt 0.9246 0.0157
vt 0.9246 0.0947
vt 0.8896 0.0943
vt 0.9300 0.8243
vt 0.8949 0.8238
vt 0.8949 0.7448
vt 0.9300 0.7453
vt 0.8847 0.3930
vt 0.8414 0.3930
vt 0.8414 0.3140
vt 0.8847 0.3140
vt 0.5058 0.7923
vt 0.5492 0.7923
vt 0.5492 0.8713
vt 0.5058 0.8713
vt 0.0153 0.8268
vt 0.0586 0.8268
vt 0.0586 0.9058
vt 0.0153 0.9058
vt 0.9300 0.9095
vt 0.8949 0.9099
vt 0.8949 0.8309
vt 0.9300 0.8305
vt 0.0647 0.8273
vt 0.0998 0.8268
vt 0.0998 0.9058
vt 0.0647 0.9063
vt 0.6468 0.9398
vt 0.6117 0.9402
vt 0.6117 0.8612
vt 0.6468 0.8608
vt 0.0927 0.9125
vt 0.0927 0.9563
vt 0.0647 0.9563
vt 0.0647 0.9125
vt 0.9589 0.0153
vt 0.9589 0.0507
vt 0.9308 0.0511
vt 0.9308 0.0157
vt 0.3036 0.9659
vt 0.3036 0.9305
vt 0.3317 0.9302
vt 0.3317 0.9656
vt 0.1956 0.9522
vt 0.1956 0.9168
vt 0.2237 0.9164
vt 0.2237 0.9518
vt 0.3036 0.9240
vt 0.3036 0.8802
vt 0.3317 0.8802
vt 0.3317 0.9240
vt 0.7082 0.5389
vt 0.7082 0.4951
vt 0.7364 0.4951
vt 0.7364 0.5389
vt 0.7368 0.1301
vt 0.7368 0.1739
vt 0.7087 0.1739
vt 0.7087 0.1301
vt 0.9582 0.6525
vt 0.9582 0.6880
vt 0.9301 0.6876
vt 0.9301 0.6522
vt 0.8949 0.9516
vt 0.8949 0.9161
vt 0.9230 0.9165
vt 0.9230 0.9519
vt 0.9301 0.7296
vt 0.9301 0.6942
vt 0.9582 0.6945
vt 0.9582 0.7300
vt 0.5870 0.9447
vt 0.5870 0.9802
vt 0.5756 0.9803
vt 0.5756 0.9449
vt 0.5931 0.9803
vt 0.5931 0.9449
vt 0.6045 0.9447
vt 0.6045 0.9802
vt 0.9329 0.5456
vt 0.9329 0.5018
vt 0.9443 0.5018
vt 0.9443 0.5456
vt 0.9617 0.2523
vt 0.9617 0.2961
vt 0.9503 0.2961
vt 0.9503 0.2523
vt 0.9361 0.9711
vt 0.9361 0.9273
vt 0.9475 0.9273
vt 0.9475 0.9711
vt 0.9422 0.0574
vt 0.9422 0.0929
vt 0.9308 0.0927
vt 0.9308 0.0573
vt 0.5528 0.7452
vt 0.5528 0.7806
vt 0.5414 0.7805
vt 0.5414 0.7451
vt 0.5580 0.9802
vt 0.5580 0.9447
vt 0.5694 0.9449
vt 0.5694 0.9803
vt 0.7215 0.9847
vt 0.7215 0.9409
vt 0.7328 0.9409
vt 0.7328 0.9847
vt 0.7456 0.9805
vt 0.7456 0.9450
vt 0.7570 0.9449
vt 0.7570 0.9803
vn -0.9891 -0.0001 0.1469
vn -0.8866 -0.0001 -0.4626
vn -0.4454 -0.0001 -0.8953
vn 0.1659 -0.0001 -0.9861
vn 0.7139 -0.0001 -0.7003
vn 0.9891 -0.0001 -0.1469
vn 0.8866 -0.0001 0.4626
vn 0.4454 -0.0001 0.8953
vn -0.1659 -0.0001 0.9861
vn -0.7139 -0.0001 0.7003
vn -0.5214 0.8498 0.0774
vn -0.4674 0.8498 -0.2438
vn -0.2348 0.8498 -0.4720
vn 0.0875 0.8498 -0.5198
vn 0.3763 0.8498 -0.3691
vn 0.5214 0.8498 -0.0774
vn 0.4674 0.8498 0.2438
vn 0.2348 0.8498 0.4720
vn -0.0875 0.8498 0.5198
vn -0.3763 0.8498 0.3691
vn -0.2206 -0.9748 0.0328
vn -0.1978 -0.9748 -0.1032
vn -0.0993 -0.9748 -0.1997
vn 0.0370 -0.9748 -0.2200
vn 0.1592 -0.9748 -0.1562
vn 0.2206 -0.9748 -0.0328
vn 0.1978 -0.9748 0.1032
vn 0.0993 -0.9748 0.1997
vn -0.0370 -0.9748 0.2200
vn -0.1592 -0.9748 0.1562
vn -0.2564 -0.9658 0.0381
vn -0.2298 -0.9658 -0.1199
vn -0.1154 -0.9658 -0.2321
vn 0.0430 -0.9658 -0.2556
vn 0.1850 -0.9658 -0.1815
vn 0.2564 -0.9658 -0.0381
vn 0.2298 -0.9658 0.1199
vn 0.1154 -0.9658 0.2321
vn -0.0430 -0.9658 0.2556
vn -0.1850 -0.9658 0.1815
vn -0.8525 -0.5071 0.1266
vn -0.7641 -0.5071 -0.3987
vn -0.3839 -0.5071 -0.7717
vn 0.1430 -0.5071 -0.8499
vn 0.6153 -0.5071 -0.6035
vn 0.8525 -0.5071 -0.1266
vn 0.7641 -0.5071 0.3987
vn 0.3839 -0.5071 0.7717
vn -0.1430 -0.5071 0.8499
vn -0.6153 -0.5071 0.6035
vn -0.9737 0.1758 0.1446
vn -0.8728 0.1758 -0.4553
vn -0.4384 0.1758 -0.8814
vn 0.1634 0.1758 -0.9708
vn 0.7028 0.1758 -0.6894
vn 0.9737 0.1758 -0.1446
vn 0.8728 0.1758 0.4553
vn 0.4384 0.1758 0.8814
vn -0.1634 0.1758 0.9708
vn -0.7028 0.1758 0.6894
vn -0.7331 0.6714 0.1089
vn -0.6570 0.6714 -0.3428
vn -0.3301 0.6714 -0.6635
vn 0.1230 0.6714 -0.7308
vn 0.5291 0.6714 -0.5190
vn 0.7331 0.6714 -0.1089
vn 0.6570 0.6714 0.3428
vn 0.3301 0.6714 0.6635
vn -0.1230 0.6714 0.7308
vn -0.5291 0.6714 0.5190
vn -0.2680 0.9626 0.0398
vn -0.2402 0.9626 -0.1253
vn -0.1207 0.9626 -0.2426
vn 0.0450 0.9626 -0.2672
vn 0.1934 0.9626 -0.1898
vn 0.2680 0.9626 -0.0398
vn 0.2402 0.9626 0.1253
vn 0.1207 0.9626 0.2426
vn -0.0450 0.9626 0.2672
vn -0.1934 0.9626 0.1898
vn -0.1628 0.9737 0.1597
vn -0.0378 0.9737 0.2249
vn 0.1016 0.9737 0.2042
vn 0.2022 0.9737 0.1055
vn 0.2256 0.9737 -0.0335
vn 0.1628 0.9737 -0.1597
vn 0.0378 0.9737 -0.2249
vn -0.1016 0.9737 -0.2042
vn -0.2022 0.9737 -0.1055
vn -0.2256 0.9737 0.0335
vn -0.7139 -0.0000 0.7003
vn -0.1659 -0.0000 0.9861
vn 0.4454 -0.0000 0.8953
vn 0.8866 -0.0000 0.4626
vn 0.9891 -0.0000 -0.1469
vn 0.7139 -0.0000 -0.7003
vn 0.1659 -0.0000 -0.9861
vn -0.4454 -0.0000 -0.8953
vn -0.8866 -0.0000 -0.4626
vn -0.9891 -0.0000 0.1469
usemtl ufo
s off
f 102/1/1 105/2/1 11/3/1 20/4/1
f 106/5/2 102/6/2 20/7/2 19/8/2
f 108/9/3 106/10/3 19/11/3 18/12/3
f 110/13/4 108/14/4 18/15/4 17/16/4
f 112/17/5 110/18/5 17/19/5 16/20/5
f 114/21/6 112/22/6 16/23/6 15/24/6
f 116/25/7 114/26/7 15/27/7 14/28/7
f 118/29/8 116/30/8 14/31/8 13/32/8
f 120/33/9 118/34/9 13/35/9 12/36/9
f 105/37/10 120/38/10 12/39/10 11/40/10
f 92/41/11 93/42/11 21/43/11 30/44/11
f 94/45/12 92/46/12 30/47/12 29/48/12
f 95/49/13 94/50/13 29/51/13 28/52/13
f 96/53/14 95/54/14 28/55/14 27/56/14
f 97/57/15 96/58/15 27/59/15 26/60/15
f 98/61/16 97/62/16 26/63/16 25/64/16
f 99/65/17 98/66/17 25/67/17 24/68/17
f 100/69/18 99/70/18 24/71/18 23/72/18
f 101/73/19 100/74/19 23/75/19 22/76/19
f 93/77/20 101/78/20 22/79/20 21/80/20
f 1/81/21 10/82/21 40/83/21 31/84/21
f 10/85/22 9/86/22 39/87/22 40/88/22
f 9/89/23 8/90/23 38/91/23 39/92/23
f 8/93/24 7/94/24 37/95/24 38/96/24
f 7/97/25 6/98/25 36/99/25 37/100/25
f 6/101/26 5/102/26 35/103/26 36/104/26
f 5/105/27 4/106/27 34/107/27 35/108/27
f 4/109/28 3/110/28 33/111/28 34/112/28
f 3/113/29 2/114/29 32/115/29 33/116/29
f 2/117/30 1/118/30 31/119/30 32/120/30
f 31/121/31 40/122/31 50/123/31 41/124/31
f 40/125/32 39/126/32 49/127/32 50/128/32
f 39/129/33 38/130/33 48/131/33 49/132/33
f 38/133/34 37/134/34 47/135/34 48/136/34
f 37/137/35 36/138/35 46/139/35 47/140/35
f 36/141/36 35/142/36 45/143/36 46/144/36
f 35/145/37 34/146/37 44/147/37 45/148/37
f 34/149/38 33/150/38 43/151/38 44/152/38
f 33/153/39 32/154/39 42/155/39 43/156/39
f 32/157/40 31/158/40 41/159/40 42/160/40
f 41/161/41 50/162/41 60/163/41 51/164/41
f 50/165/42 49/166/42 59/167/42 60/168/42
f 49/169/43 48/170/43 58/171/43 59/172/43
f 48/173/44 47/174/44 57/175/44 58/176/44
f 47/177/45 46/178/45 56/179/45 57/180/45
f 46/181/46 45/182/46 55/183/46 56/184/46
f 45/185/47 44/186/47 54/187/47 55/188/47
f 44/189/48 43/190/48 53/191/48 54/192/48
f 43/193/49 42/194/49 52/195/49 53/196/49
f 42/197/50 41/198/50 51/199/50 52/200/50
f 82/201/51 83/202/51 61/203/51 70/204/51
f 84/205/52 82/206/52 70/207/52 69/208/52
f 85/209/53 84/210/53 69/211/53 68/212/53
f 86/213/54 85/214/54 68/215/54 67/216/54
f 87/217/55 86/218/55 67/219/55 66/220/55
f 88/221/56 87/222/56 66/223/56 65/224/56
f 89/225/57 88/226/57 65/227/57 64/228/57
f 90/229/58 89/230/58 64/231/58 63/232/58
f 91/233/59 90/234/59 63/235/59 62/236/59
f 83/237/60 91/238/60 62/239/60 61/240/60
f 70/241/61 61/242/61 71/243/61 80/244/61
f 69/245/62 70/246/62 80/247/62 79/248/62
f 68/249/63 69/250/63 79/251/63 78/252/63
f 67/253/64 68/254/64 78/255/64 77/256/64
f 66/257/65 67/258/65 77/259/65 76/260/65
f 65/261/66 66/262/66 76/263/66 75/264/66
f 64/265/67 65/266/67 75/267/67 74/268/67
f 63/269/68 64/270/68 74/271/68 73/272/68
f 62/273/69 63/274/69 73/275/69 72/276/69
f 61/277/70 62/278/70 72/279/70 71/280/70
f 80/281/71 71/282/71 81/283/71
f 79/284/72 80/285/72 81/286/72
f 78/287/73 79/288/73 81/289/73
f 77/290/74 78/291/74 81/292/74
f 76/293/75 77/294/75 81/295/75
f 75/296/76 76/297/76 81/298/76
f 74/299/77 75/300/77 81/301/77
f 73/302/78 74/303/78 81/304/78
f 72/305/79 73/306/79 81/307/79
f 71/308/80 72/309/80 81/310/80
f 21/311/60 22/312/60 91/313/60 83/314/60
f 22/315/59 23/316/59 90/317/59 91/318/59
f 23/319/58 24/320/58 89/321/58 90/322/58
f 24/323/57 25/324/57 88/325/57 89/326/57
f 25/327/56 26/328/56 87/329/56 88/330/56
f 26/331/55 27/332/55 86/333/55 87/334/55
f 27/335/54 28/336/54 85/337/54 86/338/54
f 28/339/53 29/340/53 84/341/53 85/342/53
f 29/343/52 30/344/52 82/345/52 84/346/52
f 30/347/51 21/348/51 83/349/51 82/350/51
f 11/351/81 12/352/81 101/353/81 93/354/81
f 12/355/82 13/356/82 100/357/82 101/358/82
f 13/359/83 14/360/83 99/361/83 100/362/83
f 14/363/84 15/364/84 98/365/84 99/366/84
f 15/367/85 16/368/85 97/369/85 98/370/85
f 16/371/86 17/372/86 96/373/86 97/374/86
f 17/375/87 18/376/87 95/377/87 96/378/87
f 18/379/88 19/380/88 94/381/88 95/382/88
f 19/383/89 20/384/89 92/385/89 94/386/89
f 20/387/90 11/388/90 93/389/90 92/390/90
f 1/391/10 2/392/10 121/393/10 104/394/10
f 104/395/91 121/396/91 120/397/91 105/398/91
f 2/399/9 3/400/9 119/401/9 121/402/9
f 121/403/92 119/404/92 118/405/92 120/406/92
f 3/407/8 4/408/8 117/409/8 119/410/8
f 119/411/93 117/412/93 116/413/93 118/414/93
f 4/415/7 5/416/7 115/417/7 117/418/7
f 117/419/94 115/420/94 114/421/94 116/422/94
f 5/423/6 6/424/6 113/425/6 115/426/6
f 115/427/95 113/428/95 112/429/95 114/430/95
f 6/431/5 7/432/5 111/433/5 113/434/5
f 113/435/96 111/436/96 110/437/96 112/438/96
f 7/439/4 8/440/4 109/441/4 111/442/4
f 111/443/97 109/444/97 108/445/97 110/446/97
f 8/447/3 9/448/3 107/449/3 109/450/3
f 109/451/98 107/452/98 106/453/98 108/454/98
f 9/455/2 10/456/2 103/457/2 107/458/2
f 107/459/99 103/460/99 102/461/99 106/462/99
f 10/463/1 1/464/1 104/465/1 103/466/1
f 103/467/100 104/468/100 105/469/100 102/470/100
f 51/471/100 60/472/100 131/473/100 122/474/100
f 58/475/97 57/476/97 128/477/97 129/478/97
f 55/479/94 54/480/94 125/481/94 126/482/94
f 52/483/91 51/484/91 122/485/91 123/486/91
f 59/487/98 58/488/98 129/489/98 130/490/98
f 56/491/95 55/492/95 126/493/95 127/494/95
f 53/495/92 52/496/92 123/497/92 124/498/92
f 60/499/99 59/500/99 130/501/99 131/502/99
f 57/503/96 56/504/96 127/505/96 128/506/96
f 54/507/93 53/508/93 124/509/93 125/510/93
f 132/511/100 141/512/100 151/513/100 142/514/100
f 139/515/97 138/516/97 148/517/97 149/518/97
f 136/519/94 135/520/94 145/521/94 146/522/94
f 133/523/91 132/524/91 142/525/91 143/526/91
f 140/527/98 139/528/98 149/529/98 150/530/98
f 137/531/95 136/532/95 146/533/95 147/534/95
f 134/535/92 133/536/92 143/537/92 144/538/92
f 141/539/99 140/540/99 150/541/99 151/542/99
f 138/543/96 137/544/96 147/545/96 148/546/96
f 135/547/93 134/548/93 144/549/93 145/550/93
f 156/551/94 155/552/94 165/553/94 166/554/94
f 153/555/91 152/556/91 162/557/91 163/558/91
f 160/559/98 159/560/98 169/561/98 170/562/98
f 157/563/95 156/564/95 166/565/95 167/566/95
f 154/567/92 153/568/92 163/569/92 164/570/92
f 161/571/99 160/572/99 170/573/99 171/574/99
f 158/575/96 157/576/96 167/577/96 168/578/96
f 155/579/93 154/580/93 164/581/93 165/582/93
f 152/583/100 161/584/100 171/585/100 162/586/100
f 159/587/97 158/588/97 168/589/97 169/590/97
